<svg xmlns="http://www.w3.org/2000/svg" viewBox="0 0 320 240" role="img" aria-label="Person using .connect video call">
  <defs>
    <linearGradient id="bg" x1="0" x2="1" y1="0" y2="1">
      <stop offset="0" stop-color="#0f3026"/>
      <stop offset="1" stop-color="#20c66b"/>
    </linearGradient>
    <linearGradient id="shirt" x1="0" x2="1" y1="0" y2="1">
      <stop offset="0" stop-color="#ecfff6"/>
      <stop offset="1" stop-color="#98f2bd"/>
    </linearGradient>
  </defs>
  <rect width="320" height="240" rx="28" fill="url(#bg)"/>
  <circle cx="262" cy="42" r="44" fill="#86efac" opacity=".24"/>
  <circle cx="56" cy="198" r="58" fill="#14b8a6" opacity=".25"/>
  <path d="M54 214c14-50 57-75 107-75s93 25 107 75" fill="url(#shirt)"/>
  <circle cx="161" cy="93" r="54" fill="#8f5a3c"/>
  <path d="M107 91c5-48 39-70 78-60 31 8 48 31 47 62-36 2-80-12-99-35-9 14-16 25-26 33z" fill="#1b211d"/>
  <circle cx="139" cy="99" r="5" fill="#1b211d"/>
  <circle cx="181" cy="99" r="5" fill="#1b211d"/>
  <path d="M145 122c11 10 25 10 36 0" fill="none" stroke="#2f2019" stroke-width="6" stroke-linecap="round"/>
  <rect x="218" y="174" width="72" height="34" rx="17" fill="#07130f" opacity=".72"/>
  <circle cx="237" cy="191" r="7" fill="#22c55e"/>
  <path d="M250 191h23" stroke="#ecfff6" stroke-width="6" stroke-linecap="round"/>
</svg>
