<svg xmlns="http://www.w3.org/2000/svg" viewBox="0 0 320 240" role="img" aria-label="Person smiling on .connect call">
  <defs>
    <linearGradient id="bg" x1="0" x2="1" y1="0" y2="1">
      <stop offset="0" stop-color="#0b1b17"/>
      <stop offset="1" stop-color="#14b8a6"/>
    </linearGradient>
    <linearGradient id="shirt" x1="0" x2="1" y1="0" y2="1">
      <stop offset="0" stop-color="#22c55e"/>
      <stop offset="1" stop-color="#0f9f8f"/>
    </linearGradient>
  </defs>
  <rect width="320" height="240" rx="28" fill="url(#bg)"/>
  <path d="M26 54c43-35 92-42 146-20s88 14 122-8v214H26z" fill="#ecfff6" opacity=".08"/>
  <path d="M58 218c12-48 54-73 102-73s90 25 102 73" fill="url(#shirt)"/>
  <circle cx="160" cy="99" r="55" fill="#c88758"/>
  <path d="M105 93c3-46 37-78 85-68 31 7 52 32 49 70-25-8-50-18-70-39-18 22-38 32-64 37z" fill="#2c1712"/>
  <circle cx="139" cy="105" r="5" fill="#1b211d"/>
  <circle cx="183" cy="105" r="5" fill="#1b211d"/>
  <path d="M143 127c11 13 29 13 41 0" fill="none" stroke="#4b2418" stroke-width="6" stroke-linecap="round"/>
  <rect x="29" y="31" width="91" height="32" rx="16" fill="#07130f" opacity=".76"/>
  <circle cx="47" cy="47" r="6" fill="#22c55e"/>
  <path d="M62 47h35" stroke="#ecfff6" stroke-width="5" stroke-linecap="round"/>
</svg>
